# xmcd
#
# Track frame offsets:
#	150
#	14914
#	29399
#	44616
#	56452
#	70095
#	86629
#	100073
#	111677
#	124661
#	140056
#	162711
#
# Disc length: 2401 seconds
#
# Revision: 2
# Processed by: cddbd v1.4PL0 Copyright (c) Steve Scherf et al.
# Submitted via: audiograbber 1.81.01
#
DISCID=b5095f0c
DTITLE=Anna Identici - I Grandi Successi Originali cd1
DYEAR=1900
DGENRE=Pop
TTITLE0=Quando m'innamoro
TTITLE1=Era bello il mio ragazzo
TTITLE2=E quando sarò ricca
TTITLE3=Amore da niente
TTITLE4=Adesso sembra solo una speranza
TTITLE5=Trenta denari
TTITLE6=I figli
TTITLE7=Io voglio andà in america
TTITLE8=Maremma
TTITLE9=Lacrime dolci, lacrime salve
TTITLE10=Nostalgia
TTITLE11=Mia città
EXTD=
EXTT0=
EXTT1=
EXTT2=
EXTT3=
EXTT4=
EXTT5=
EXTT6=
EXTT7=
EXTT8=
EXTT9=
EXTT10=
EXTT11=
PLAYORDER=
